# This file uses centimeters as units for non-parametric coordinates.

mtllib Rock_Four.mtl
g default
v -1.017761 1.056076 -1.038609
v 0.357763 1.277531 -1.260064
v -1.315024 0.003818 1.363169
v 1.384019 0.003818 1.363169
v 0.034497 0.003818 1.856719
v 0.034497 0.003818 -1.829423
v 1.877568 0.003818 0.013648
v -1.808574 0.003818 0.013648
v 1.753725 0.003818 0.749418
v 0.770269 0.003818 1.732876
v -0.634677 0.672992 1.560791
v 0.674275 1.413174 0.978399
v 0.364137 1.485833 -0.993029
v -0.295143 1.485833 -0.993029
v -0.605281 1.413174 0.978399
v 0.376886 0.699409 -1.617593
v -0.307892 0.699409 -1.617593
v 1.250387 1.219708 -0.610687
v 1.581639 0.672992 0.682822
v -1.447517 1.010495 0.343288
v -1.374858 0.968569 -0.626131
v 1.086756 1.056076 -1.038609
v -1.261867 1.300183 0.013648
v 1.308210 1.277531 0.336913
v 1.308210 1.277531 -0.309618
v -1.315024 0.003818 -1.335873
v 1.384019 0.003818 -1.335873
v 1.330862 1.300183 0.013648
v -0.701274 0.003818 1.732876
v 0.034497 1.512013 1.038310
v 1.250387 0.628154 -1.202242
v -1.181393 0.628154 -1.202242
v -1.684731 0.003818 0.749418
v 0.658832 1.219708 1.229538
v 0.034497 1.300183 1.310012
v 0.034497 0.711873 1.673516
v 1.250387 0.628154 1.229538
v -1.181393 0.628154 1.229538
v -0.589838 1.219708 1.229538
v 0.730088 1.635059 0.356037
v 0.034497 1.754917 0.375160
v 0.389635 1.724868 -0.341490
v 1.041174 1.485833 -0.315992
v -1.181393 1.219708 -0.610687
v -0.320640 1.724868 -0.341490
v -0.295143 1.485833 1.020324
v -0.320640 1.724868 0.368786
v -0.990165 1.512013 0.013648
v 0.770269 0.003818 -1.705581
v 0.364137 1.010495 -1.468367
v -0.288768 1.277531 -1.260064
v -0.701274 0.003818 -1.705581
v 1.167521 1.136842 -0.867365
v 1.665738 0.699409 -0.328741
v 1.753725 0.003818 -0.722122
v 1.167521 1.136842 0.894661
v 1.665738 0.699409 0.356037
v -1.098528 1.136842 0.894661
v -1.684731 0.003818 -0.722122
v -1.473697 1.028480 0.013648
vt 0.375000 0.500000
vt 0.875000 0.250000
vt 0.125000 0.250000
vt 0.500000 0.125000
vt 0.500000 0.625000
vt 0.750000 0.125000
vt 0.250000 0.125000
vt 0.625000 0.125000
vt 0.375000 0.125000
vt 0.531250 0.500000
vt 0.750000 0.250000
vt 0.562500 0.125000
vt 0.437500 0.187500
vt 0.562500 0.281250
vt 0.531250 0.468750
vt 0.468750 0.468750
vt 0.437500 0.281250
vt 0.531250 0.562500
vt 0.468750 0.562500
vt 0.812500 0.250000
vt 0.687500 0.187500
vt 0.281250 0.218750
vt 0.187500 0.218750
vt 0.625000 0.437500
vt 0.875000 0.187500
vt 0.687500 0.125000
vt 0.125000 0.187500
vt 0.562500 0.250000
vt 0.500000 0.250000
vt 0.500000 0.187500
vt 0.625000 0.187500
vt 0.375000 0.187500
vt 0.437500 0.250000
vt 0.562500 0.343750
vt 0.500000 0.343750
vt 0.625000 0.468750
vt 0.531250 0.406250
vt 0.593750 0.406250
vt 0.375000 0.437500
vt 0.468750 0.406250
vt 0.468750 0.281250
vt 0.468750 0.343750
vt 0.406250 0.375000
vt 0.562500 0.625000
vt 0.531250 0.531250
vt 0.468750 0.500000
vt 0.437500 0.625000
vt 0.843750 0.250000
vt 0.781250 0.187500
vt 0.812500 0.125000
vt 0.656250 0.250000
vt 0.718750 0.187500
vt 0.375000 0.281250
vt 0.187500 0.125000
vt 0.250000 0.218750
vt 0.437500 0.125000
vt 0.625000 0.343750
vt 0.625000 0.375000
vt 0.500000 0.281250
vt 0.625000 0.500000
vt 0.625000 0.406250
vt 0.375000 0.375000
vt 0.625000 0.562500
vt 0.625000 0.625000
vt 0.375000 0.562500
vt 0.375000 0.625000
vt 0.781250 0.250000
vt 0.875000 0.125000
vt 0.718750 0.250000
vt 0.250000 0.250000
vt 0.312500 0.125000
vt 0.125000 0.125000
vt 0.187500 0.250000
vn 0.383067 0.383068 0.840547
vn 0.383067 0.383068 0.840547
vn 0.383067 0.383068 0.840547
vn 0.525812 0.525812 0.668612
vn 0.525812 0.525812 0.668612
vn 0.525812 0.525812 0.668612
vn 0.303238 0.388072 0.870314
vn 0.264243 0.429913 0.863337
vn 0.279217 0.414126 0.866336
vn 0.174679 0.517554 0.837631
vn 0.160828 0.247233 0.955516
vn 0.160828 0.247233 0.955516
vn 0.160828 0.247233 0.955516
vn 0.495071 0.281873 0.821859
vn 0.495071 0.281873 0.821859
vn 0.495071 0.281873 0.821859
vn -0.525811 0.525813 0.668614
vn -0.525811 0.525813 0.668614
vn -0.525811 0.525813 0.668614
vn -0.482496 0.482496 0.731024
vn -0.482496 0.482496 0.731024
vn -0.482496 0.482496 0.731024
vn -0.495072 0.281871 0.821859
vn -0.495072 0.281871 0.821859
vn -0.495072 0.281871 0.821859
vn -0.515789 0.261162 0.815939
vn -0.515789 0.261162 0.815939
vn -0.515789 0.261162 0.815939
vn -0.174898 0.246632 0.953196
vn -0.174898 0.246632 0.953196
vn -0.174898 0.246632 0.953196
vn -0.160239 0.260767 0.952011
vn -0.160239 0.260767 0.952011
vn -0.160239 0.260767 0.952011
vn -0.171147 0.520783 0.836358
vn -0.172909 0.519175 0.836995
vn -0.172940 0.519146 0.837006
vn -0.174679 0.517555 0.837630
vn 0.476342 0.682140 0.554782
vn 0.476342 0.682140 0.554782
vn 0.476342 0.682140 0.554782
vn 0.525842 0.845140 0.096065
vn 0.525842 0.845140 0.096065
vn 0.525842 0.845140 0.096065
vn 0.503402 0.798609 0.329865
vn 0.504026 0.798474 0.329237
vn 0.504028 0.798474 0.329234
vn 0.504598 0.798350 0.328661
vn 0.170808 0.984349 0.043370
vn 0.170808 0.984349 0.043370
vn 0.170808 0.984349 0.043370
vn 0.174552 0.924575 0.338662
vn 0.171556 0.924072 0.341554
vn 0.171519 0.924066 0.341590
vn 0.168609 0.923562 0.344390
vn 0.178015 0.776042 0.605037
vn 0.177006 0.774974 0.606699
vn 0.177594 0.775597 0.605731
vn 0.176534 0.774474 0.607475
vn 0.392530 0.720630 -0.571499
vn 0.393932 0.722620 -0.568012
vn 0.401636 0.733499 -0.548331
vn 0.405067 0.738314 -0.539271
vn 0.416267 0.808360 -0.416263
vn 0.416267 0.808360 -0.416263
vn 0.416267 0.808360 -0.416263
vn 0.448378 0.798130 -0.402424
vn 0.448378 0.798130 -0.402424
vn 0.448378 0.798130 -0.402424
vn 0.613557 0.783558 -0.097897
vn 0.613557 0.783558 -0.097897
vn 0.613557 0.783558 -0.097897
vn 0.597695 0.758249 -0.260421
vn 0.597695 0.758249 -0.260421
vn 0.597695 0.758249 -0.260421
vn 0.335969 0.879915 -0.335968
vn 0.335969 0.879915 -0.335968
vn 0.335969 0.879915 -0.335968
vn 0.345687 0.937118 -0.048069
vn 0.399810 0.916413 -0.018418
vn 0.419143 0.907889 -0.007576
vn 0.504662 0.862288 0.042137
vn -0.392530 0.720630 -0.571500
vn -0.426657 0.768056 -0.477549
vn -0.408515 0.743110 -0.530003
vn -0.431795 0.774990 -0.461459
vn -0.605034 0.776044 -0.178016
vn -0.605034 0.776044 -0.178016
vn -0.605034 0.776044 -0.178016
vn -0.420962 0.864177 -0.275661
vn -0.420962 0.864177 -0.275661
vn -0.420962 0.864177 -0.275661
vn -0.399100 0.855644 -0.329535
vn -0.399100 0.855644 -0.329535
vn -0.399100 0.855644 -0.329535
vn 0.000000 0.938812 -0.344429
vn 0.000000 0.938812 -0.344429
vn 0.000000 0.938812 -0.344429
vn 0.000000 0.938813 -0.344428
vn 0.000000 0.788482 -0.615057
vn 0.000000 0.788482 -0.615057
vn 0.000000 0.788482 -0.615057
vn 0.000000 0.788482 -0.615057
vn -0.476342 0.682140 0.554782
vn -0.476342 0.682140 0.554782
vn -0.476342 0.682140 0.554782
vn -0.179189 0.722973 0.667234
vn -0.150732 0.745472 0.649270
vn -0.160827 0.737653 0.655746
vn -0.095739 0.785015 0.612033
vn -0.258510 0.757517 0.599450
vn -0.258510 0.757517 0.599450
vn -0.258510 0.757517 0.599450
vn 0.000000 0.999122 -0.041895
vn -0.014434 0.999292 -0.034749
vn -0.031312 0.999161 -0.026379
vn -0.084315 0.996439 0.000000
vn -0.257917 0.903743 0.341655
vn -0.257917 0.903743 0.341655
vn -0.257917 0.903743 0.341654
vn -0.092941 0.934926 0.342454
vn -0.087362 0.934485 0.345118
vn -0.090596 0.934745 0.343575
vn -0.085270 0.934310 0.346113
vn -0.595042 0.763224 0.251822
vn -0.516856 0.808707 0.280807
vn -0.555687 0.787370 0.266945
vn -0.504859 0.814834 0.284892
vn -0.412937 0.874526 0.254336
vn -0.412937 0.874526 0.254336
vn -0.412937 0.874526 0.254336
vn -0.302974 0.952999 0.000000
vn -0.302974 0.952999 0.000000
vn -0.302974 0.952999 0.000000
vn 0.411845 0.458591 -0.787450
vn 0.432555 0.427604 -0.793757
vn 0.417290 0.450592 -0.789199
vn 0.449359 0.401286 -0.798151
vn 0.392523 0.571505 -0.720630
vn 0.392523 0.571505 -0.720630
vn 0.392523 0.571505 -0.720630
vn 0.425726 0.346500 -0.835880
vn 0.425726 0.346500 -0.835880
vn 0.425726 0.346500 -0.835880
vn 0.495068 0.281873 -0.821861
vn 0.495068 0.281873 -0.821861
vn 0.495068 0.281873 -0.821861
vn -0.285398 0.404982 -0.868641
vn -0.285398 0.404982 -0.868641
vn -0.285398 0.404982 -0.868641
vn 0.162153 0.213565 -0.963378
vn 0.162153 0.213565 -0.963378
vn 0.162153 0.213565 -0.963378
vn -0.386667 0.494284 -0.778570
vn -0.394738 0.483068 -0.781555
vn -0.401727 0.473185 -0.784035
vn -0.411845 0.458591 -0.787450
vn 0.000000 0.615058 -0.788482
vn 0.000000 0.615058 -0.788482
vn 0.000000 0.615058 -0.788482
vn -0.055328 0.526493 -0.848377
vn -0.055328 0.526493 -0.848377
vn -0.055328 0.526493 -0.848377
vn -0.162153 0.213564 -0.963378
vn -0.162153 0.213564 -0.963378
vn -0.162153 0.213564 -0.963378
vn 0.062466 0.318763 -0.945774
vn 0.062466 0.318763 -0.945774
vn 0.062466 0.318763 -0.945774
vn -0.495069 0.281870 -0.821861
vn -0.495069 0.281870 -0.821861
vn -0.495069 0.281870 -0.821861
vn -0.425726 0.346500 -0.835880
vn -0.425726 0.346500 -0.835880
vn -0.425726 0.346500 -0.835880
vn 0.689391 0.473311 -0.548376
vn 0.689391 0.473311 -0.548376
vn 0.689391 0.473311 -0.548376
vn 0.845144 0.525836 -0.096065
vn 0.845144 0.525836 -0.096065
vn 0.845144 0.525836 -0.096065
vn 0.818345 0.514563 -0.256000
vn 0.818345 0.514563 -0.256000
vn 0.818345 0.514563 -0.256000
vn 0.963378 0.213563 -0.162154
vn 0.963378 0.213563 -0.162154
vn 0.963378 0.213563 -0.162154
vn 0.793429 0.372566 -0.481316
vn 0.793429 0.372566 -0.481316
vn 0.793429 0.372566 -0.481316
vn 0.821864 0.281872 -0.495064
vn 0.837609 0.357936 -0.412665
vn 0.832179 0.325900 -0.448628
vn 0.840850 0.386458 -0.378974
vn 0.836181 0.382205 -0.393345
vn 0.836181 0.382205 -0.393345
vn 0.836181 0.382205 -0.393345
vn 0.749296 0.444950 0.490485
vn 0.749296 0.444950 0.490485
vn 0.749296 0.444950 0.490485
vn 0.821862 0.281872 0.495066
vn 0.819089 0.271893 0.505140
vn 0.819119 0.271997 0.505036
vn 0.815936 0.261163 0.515794
vn 0.956625 0.291323 0.000000
vn 0.956625 0.291323 0.000000
vn 0.956625 0.291323 0.000000
vn 0.928523 0.264693 0.260353
vn 0.959015 0.221352 0.176901
vn 0.953627 0.230257 0.193851
vn 0.963378 0.213563 0.162154
vn 0.873471 0.486875 0.000000
vn 0.864565 0.501361 0.034124
vn 0.869726 0.493309 0.014950
vn 0.845142 0.525839 0.096066
vn 0.773948 0.539643 0.331345
vn 0.795154 0.529137 0.296216
vn 0.784711 0.534518 0.313877
vn 0.819189 0.514971 0.252454
vn -0.810716 0.408278 0.419580
vn -0.810716 0.408278 0.419580
vn -0.810716 0.408278 0.419580
vn -0.785017 0.612031 0.095736
vn -0.785017 0.612031 0.095736
vn -0.785017 0.612031 0.095736
vn -0.657356 0.709681 0.253448
vn -0.657356 0.709681 0.253448
vn -0.657356 0.709681 0.253448
vn -0.944713 0.286762 0.159012
vn -0.944713 0.286762 0.159012
vn -0.944713 0.286762 0.159012
vn -0.946489 0.309333 0.092046
vn -0.946489 0.309332 0.092046
vn -0.946489 0.309333 0.092046
vn -0.821863 0.281869 0.495067
vn -0.821863 0.281869 0.495067
vn -0.821863 0.281869 0.495067
vn -0.838174 0.362067 0.407888
vn -0.838173 0.362067 0.407888
vn -0.838174 0.362067 0.407888
vn -0.683332 0.555550 -0.473732
vn -0.683332 0.555550 -0.473732
vn -0.683332 0.555550 -0.473732
vn -0.713890 0.471098 -0.518100
vn -0.713890 0.471098 -0.518100
vn -0.713890 0.471098 -0.518100
vn -0.829369 0.312475 -0.463149
vn -0.827093 0.302512 -0.473713
vn -0.826272 0.299085 -0.477307
vn -0.821864 0.281868 -0.495066
vn -0.932456 0.316777 -0.173717
vn -0.932456 0.316777 -0.173717
vn -0.932456 0.316777 -0.173717
vn -0.938587 0.306750 -0.157981
vn -0.938587 0.306750 -0.157981
vn -0.938587 0.306750 -0.157981
vn -0.776040 0.605038 -0.178016
vn -0.776040 0.605039 -0.178016
vn -0.776040 0.605039 -0.178016
vn -0.774475 0.607474 -0.176531
vn -0.774475 0.607474 -0.176531
vn -0.774475 0.607474 -0.176531
s off
g Rock_Three group2 group group1
usemtl lambert2SG
f 34/28/1 10/12/2 37/31/3
f 37/31/4 56/51/5 34/28/6
s 1
f 10/12/7 34/28/8 36/30/9
f 36/30/9 34/28/8 35/29/10
s off
f 5/4/11 10/12/12 36/30/13
f 10/12/14 4/8/15 37/31/16
f 58/53/17 38/32/18 39/33/19
f 38/32/20 11/13/21 39/33/22
f 38/32/23 3/9/24 29/56/25
f 29/56/26 11/13/27 38/32/28
f 5/4/29 36/30/30 11/13/31
f 29/56/32 5/4/33 11/13/34
s 2
f 11/13/35 36/30/36 39/33/37
f 39/33/37 36/30/36 35/29/38
s off
f 34/28/39 56/51/40 12/14/41
f 24/57/42 28/58/43 40/34/44
s 3
f 12/14/45 56/51/46 40/34/47
f 40/34/47 56/51/46 24/57/48
s off
f 40/34/49 42/37/50 41/35/51
s 4
f 30/59/52 12/14/53 41/35/54
f 41/35/54 12/14/53 40/34/55
s 5
f 35/29/56 34/28/57 30/59/58
f 30/59/58 34/28/57 12/14/59
s 6
f 2/10/60 13/15/61 22/60/62
f 22/60/62 13/15/61 53/36/63
s off
f 13/15/64 43/38/65 53/36/66
f 43/38/67 18/24/68 53/36/69
f 28/58/70 25/61/71 43/38/72
f 25/61/73 18/24/74 43/38/75
f 43/38/76 13/15/77 42/37/78
s 7
f 42/37/79 40/34/80 43/38/81
f 43/38/81 40/34/80 28/58/82
s 8
f 51/46/83 1/1/84 14/16/85
f 14/16/85 1/1/84 44/39/86
s off
f 44/39/87 23/62/88 48/43/89
f 48/43/90 45/40/91 44/39/92
f 45/40/93 14/16/94 44/39/95
s 9
f 42/37/96 13/15/97 45/40/98
f 45/40/98 13/15/97 14/16/99
s 10
f 13/15/100 2/10/101 14/16/102
f 14/16/102 2/10/101 51/46/103
s off
f 58/53/104 39/33/105 15/17/106
s 11
f 39/33/107 35/29/108 46/41/109
f 46/41/109 35/29/108 30/59/110
s off
f 15/17/111 39/33/112 46/41/113
s 12
f 42/37/114 45/40/115 41/35/116
f 41/35/116 45/40/115 47/42/117
s off
f 47/42/118 15/17/119 46/41/120
s 13
f 30/59/121 41/35/122 46/41/123
f 46/41/123 41/35/122 47/42/124
s 14
f 23/62/125 58/53/126 48/43/127
f 48/43/127 58/53/126 15/17/128
s off
f 15/17/129 47/42/130 48/43/131
f 47/42/132 45/40/133 48/43/134
s 15
f 31/63/135 16/18/136 22/60/137
f 22/60/137 16/18/136 50/45/138
s off
f 50/45/139 2/10/140 22/60/141
f 49/44/142 16/18/143 31/63/144
f 31/63/145 27/64/146 49/44/147
f 6/5/148 50/45/149 16/18/150
f 49/44/151 6/5/152 16/18/153
s 16
f 51/46/154 17/19/155 1/1/156
f 1/1/156 17/19/155 32/65/157
s off
f 51/46/158 2/10/159 50/45/160
f 50/45/161 17/19/162 51/46/163
f 6/5/164 52/47/165 17/19/166
f 17/19/167 50/45/168 6/5/169
f 26/66/170 32/65/171 52/47/172
f 32/65/173 17/19/174 52/47/175
f 53/48/176 31/25/177 22/2/178
f 25/67/179 28/11/180 54/49/181
f 18/20/182 25/67/183 54/49/184
f 7/6/185 55/50/186 54/49/187
f 55/50/188 18/20/189 54/49/190
s 17
f 27/68/191 31/25/192 55/50/193
f 55/50/193 31/25/192 53/48/194
s off
f 53/48/195 18/20/196 55/50/197
f 56/51/198 37/31/199 19/21/200
s 18
f 4/8/201 9/26/202 37/31/203
f 37/31/203 9/26/202 19/21/204
s off
f 7/6/205 54/49/206 57/52/207
s 19
f 19/21/208 9/26/209 57/52/210
f 57/52/210 9/26/209 7/6/211
s 20
f 54/49/212 28/11/213 57/52/214
f 57/52/214 28/11/213 24/69/215
s 21
f 56/51/216 19/21/217 24/69/218
f 24/69/218 19/21/217 57/52/219
s off
f 20/22/220 38/32/221 58/53/222
f 23/70/223 60/55/224 20/22/225
f 20/22/226 58/53/227 23/70/228
f 8/7/229 33/71/230 20/22/231
f 20/22/232 60/55/233 8/7/234
f 33/71/235 3/9/236 38/32/237
f 38/32/238 20/22/239 33/71/240
f 44/73/241 1/3/242 21/23/243
f 1/3/244 32/27/245 21/23/246
s 22
f 21/23/247 32/27/248 59/54/249
f 59/54/249 32/27/248 26/72/250
s off
f 60/55/251 21/23/252 59/54/253
f 59/54/254 8/7/255 60/55/256
f 60/55/257 23/70/258 44/73/259
f 44/73/260 21/23/261 60/55/262
