# This file uses centimeters as units for non-parametric coordinates.

mtllib JumpPad.mtl
g default
v -1.007311 0.257926 -1.200239
v 0.467102 0.291082 -1.319227
v -1.566641 -0.020509 1.662845
v 1.855777 0.023028 1.662845
v 0.144564 -0.003816 1.693198
v 0.144564 -0.001550 -1.789923
v 1.886120 -0.001550 -0.048363
v -1.596996 -0.001550 -0.048363
v 1.880962 0.024540 0.694771
v 0.887681 0.003416 1.688045
v -0.529393 0.166752 1.509906
v 0.784342 0.331076 0.916390
v 0.474204 0.307869 -1.055037
v -0.185074 0.307869 -1.055037
v -0.495213 0.286573 0.916390
v 0.478604 0.176467 -1.639826
v -0.189474 0.176467 -1.639826
v 1.553157 0.269592 -0.673426
v 1.702033 0.220375 0.625245
v -1.317153 0.246794 0.276762
v -1.271403 0.231256 -0.691113
v 1.296441 0.257926 -1.200239
v -1.142819 0.316384 -0.048363
v 1.416483 0.341456 0.274463
v 1.415435 0.291082 -0.370914
v -1.566641 -0.020509 -1.759566
v 1.855778 -0.020509 -1.759566
v 1.431943 0.316384 -0.048363
v -0.598560 -0.014925 1.688045
v 0.144564 0.320914 0.976302
v 1.617145 0.180649 -1.521006
v -1.328012 0.180649 -1.521006
v -1.591841 -0.014925 0.694771
v 0.769561 0.305848 1.168834
v 0.144564 0.302769 1.238517
v 0.144564 0.183279 1.541917
v 1.613882 0.233344 1.420928
v -1.328012 0.180649 1.424216
v -0.480432 0.269592 1.168834
v 0.840156 0.373155 0.294028
v 0.144564 0.343520 0.313152
v 0.499701 0.331204 -0.403498
v 1.151242 0.307869 -0.378000
v -1.072631 0.269592 -0.673426
v -0.210572 0.331204 -0.403498
v -0.185074 0.307869 0.958319
v -0.210572 0.331204 0.306777
v -0.880097 0.338498 -0.048363
v 0.887678 -0.014925 -1.784840
v 0.282794 0.246794 -1.582230
v -0.177972 0.291082 -1.319227
v -0.598560 -0.014925 -1.784840
v 1.529519 0.264312 -0.976380
v 1.736047 0.176467 -0.382394
v 1.880960 -0.014925 -0.791489
v 1.330787 0.333840 0.873971
v 1.738208 0.205104 0.286147
v -1.048943 0.264312 0.879659
v -1.591841 -0.014925 -0.791489
v -1.325378 0.265283 -0.048363
v 0.144564 -0.213812 1.693198
v 0.887681 -0.206580 1.688045
v 1.855777 -0.186968 1.662845
v -0.598560 -0.224921 1.688045
v -1.566641 -0.230505 1.662845
v 0.144564 -0.211546 -1.789923
v 0.887678 -0.224921 -1.784840
v -0.598560 -0.224921 -1.784840
v 1.886120 -0.211546 -0.048363
v 1.880960 -0.224921 -0.791489
v 1.880962 -0.185457 0.694771
v -1.596996 -0.211546 -0.048363
v -1.591841 -0.224921 0.694771
v -1.591841 -0.224921 -0.791489
v 1.855778 -0.230505 -1.759566
v -1.566641 -0.230505 -1.759566
vt 0.464369 0.274795
vt 0.620585 0.228153
vt 0.568207 0.329351
vt 0.348732 0.205768
vt 0.348732 0.261903
vt 0.127910 0.328298
vt 0.076277 0.227545
vt 0.233096 0.274795
vt 0.224037 0.211690
vt 0.467104 0.321502
vt 0.584062 0.440271
vt 0.586923 0.500000
vt 0.477430 0.436651
vt 0.414439 0.565707
vt 0.348732 0.433113
vt 0.348732 0.310417
vt 0.561852 0.713119
vt 0.408408 0.735134
vt 0.409722 0.686254
vt 0.604976 0.671701
vt 0.534987 0.560989
vt 0.609349 0.615649
vt 0.583868 0.559678
vt 0.287743 0.686254
vt 0.289057 0.735134
vt 0.135613 0.713119
vt 0.123527 0.615649
vt 0.110541 0.500000
vt 0.159150 0.500000
vt 0.283025 0.565707
vt 0.230361 0.321502
vt 0.287743 0.313745
vt 0.283025 0.434292
vt 0.621189 0.772467
vt 0.410536 0.794451
vt 0.374307 0.783795
vt 0.286929 0.794451
vt 0.076277 0.772467
vt 0.643188 0.561802
vt 0.636895 0.375370
vt 0.643588 0.438109
vt 0.078286 0.439846
vt 0.076764 0.500000
vt 0.086751 0.618921
vt 0.027463 0.637493
vt 0.032126 0.816606
vt 0.670000 0.637493
vt 0.665340 0.816606
vt 0.211240 0.821282
vt 0.486223 0.821282
vt 0.026510 0.500000
vt 0.027463 0.362506
vt 0.032126 0.183394
vt 0.670000 0.362506
vt 0.665340 0.183394
vt 0.670954 0.500000
vt 0.348732 0.822222
vt 0.211240 0.178731
vt 0.348732 0.177778
vt 0.486223 0.178731
vt 0.900271 0.288855
vt 0.904071 0.499998
vt 0.844405 0.499998
vt 0.840605 0.288855
vt 0.911484 0.711144
vt 0.851818 0.711144
vt 0.898685 0.013797
vt 0.839018 0.013797
vt 0.911055 0.986201
vt 0.851389 0.986201
vt 0.979456 0.288854
vt 0.983257 0.500000
vt 0.923590 0.500000
vt 0.919791 0.288854
vt 0.979456 0.711143
vt 0.919791 0.711143
vt 0.977870 0.013797
vt 0.918204 0.013797
vt 0.977870 0.986201
vt 0.918204 0.986201
vt 0.834121 0.288860
vt 0.832066 0.500000
vt 0.772400 0.500000
vt 0.774455 0.288860
vt 0.828910 0.711143
vt 0.769244 0.711143
vt 0.839694 0.013797
vt 0.780028 0.013797
vt 0.827323 0.986203
vt 0.767657 0.986203
vt 0.695335 0.500001
vt 0.699135 0.288861
vt 0.758801 0.288861
vt 0.755001 0.500001
vt 0.700722 0.013797
vt 0.760388 0.013797
vt 0.699135 0.711144
vt 0.758801 0.711144
vt 0.700722 0.986203
vt 0.760388 0.986203
vn -0.080594 0.853204 0.515313
vn -0.080594 0.853204 0.515313
vn -0.080594 0.853204 0.515313
vn 0.036170 0.986053 0.162452
vn 0.036170 0.986053 0.162452
vn 0.036170 0.986053 0.162452
vn 0.090359 0.891355 0.444208
vn 0.090359 0.891355 0.444208
vn 0.090359 0.891355 0.444208
vn 0.090359 0.891355 0.444208
vn -0.000724 0.628757 0.777602
vn -0.000724 0.628757 0.777602
vn -0.000724 0.628757 0.777602
vn 0.001745 0.755541 0.655099
vn 0.001745 0.755541 0.655099
vn 0.001745 0.755541 0.655099
vn -0.068715 0.990752 0.117000
vn -0.068715 0.990752 0.117000
vn -0.068715 0.990752 0.117000
vn -0.014105 0.957887 0.286799
vn -0.014105 0.957887 0.286799
vn -0.014105 0.957887 0.286799
vn -0.020921 0.774628 0.632070
vn -0.020921 0.774628 0.632070
vn -0.020921 0.774628 0.632070
vn -0.062797 0.710825 0.700560
vn -0.062797 0.710825 0.700560
vn -0.062797 0.710825 0.700560
vn -0.052287 0.627896 0.776539
vn -0.052287 0.627896 0.776539
vn -0.052287 0.627896 0.776539
vn -0.015437 0.703029 0.710994
vn -0.015437 0.703029 0.710994
vn -0.015437 0.703029 0.710994
vn -0.061316 0.944976 0.321341
vn -0.061316 0.944976 0.321341
vn -0.061316 0.944976 0.321341
vn -0.061316 0.944976 0.321341
vn 0.002700 0.995024 0.099598
vn 0.002700 0.995024 0.099598
vn 0.002700 0.995024 0.099598
vn 0.052233 0.995827 -0.074837
vn 0.052233 0.995827 -0.074837
vn 0.052233 0.995827 -0.074837
vn 0.028159 0.998640 0.043877
vn 0.028159 0.998640 0.043877
vn 0.028159 0.998640 0.043877
vn 0.028159 0.998640 0.043877
vn -0.043597 0.998297 -0.038760
vn -0.043597 0.998297 -0.038760
vn -0.043597 0.998297 -0.038760
vn -0.026852 0.998434 0.049073
vn -0.026852 0.998434 0.049073
vn -0.026852 0.998434 0.049073
vn -0.026852 0.998434 0.049073
vn -0.001832 0.996470 0.083926
vn -0.001832 0.996470 0.083926
vn -0.001832 0.996470 0.083926
vn -0.001832 0.996470 0.083926
vn 0.047993 0.996326 -0.070925
vn 0.047993 0.996326 -0.070925
vn 0.047993 0.996326 -0.070925
vn 0.047993 0.996326 -0.070925
vn 0.044510 0.998017 -0.044510
vn 0.044510 0.998017 -0.044510
vn 0.044510 0.998017 -0.044510
vn 0.077696 0.996702 -0.023435
vn 0.077696 0.996702 -0.023435
vn 0.077696 0.996702 -0.023435
vn 0.065376 0.994538 -0.081361
vn 0.065376 0.994538 -0.081361
vn 0.065376 0.994538 -0.081361
vn 0.064467 0.997057 -0.041479
vn 0.064467 0.997057 -0.041479
vn 0.064467 0.997057 -0.041479
vn 0.037222 0.998613 -0.037223
vn 0.037222 0.998613 -0.037223
vn 0.037222 0.998613 -0.037223
vn 0.044799 0.996099 -0.076031
vn 0.044799 0.996099 -0.076031
vn 0.044799 0.996099 -0.076031
vn 0.044799 0.996099 -0.076031
vn -0.053402 0.997740 -0.040780
vn -0.053402 0.997740 -0.040780
vn -0.053402 0.997740 -0.040780
vn -0.053402 0.997740 -0.040780
vn -0.083582 0.992978 -0.083719
vn -0.083582 0.992978 -0.083719
vn -0.083582 0.992978 -0.083719
vn -0.040671 0.994443 -0.097098
vn -0.040671 0.994443 -0.097098
vn -0.040671 0.994443 -0.097098
vn -0.059379 0.997510 -0.038050
vn -0.059379 0.997510 -0.038050
vn -0.059379 0.997510 -0.038050
vn 0.000000 0.999359 -0.035793
vn 0.000000 0.999359 -0.035793
vn 0.000000 0.999359 -0.035793
vn 0.000000 0.999359 -0.035793
vn 0.000000 0.997987 -0.063414
vn 0.000000 0.997987 -0.063414
vn 0.000000 0.997987 -0.063414
vn 0.000000 0.997987 -0.063414
vn -0.044683 0.996570 0.069649
vn -0.044683 0.996570 0.069649
vn -0.044683 0.996570 0.069649
vn -0.055872 0.994912 0.083837
vn -0.055872 0.994912 0.083837
vn -0.055872 0.994912 0.083837
vn -0.055872 0.994912 0.083837
vn -0.077942 0.994394 0.071450
vn -0.077942 0.994394 0.071450
vn -0.077942 0.994394 0.071450
vn -0.011489 0.999868 -0.011489
vn -0.011489 0.999868 -0.011489
vn -0.011489 0.999868 -0.011489
vn -0.011489 0.999868 -0.011489
vn -0.073645 0.996538 0.038574
vn -0.073645 0.996538 0.038574
vn -0.073645 0.996538 0.038574
vn -0.038252 0.998632 0.035638
vn -0.038252 0.998632 0.035638
vn -0.038252 0.998632 0.035638
vn -0.038252 0.998632 0.035638
vn -0.057244 0.995959 0.069202
vn -0.057244 0.995959 0.069202
vn -0.057244 0.995959 0.069202
vn -0.057244 0.995959 0.069202
vn -0.022345 0.997787 0.062618
vn -0.022345 0.997787 0.062618
vn -0.022345 0.997787 0.062618
vn 0.010893 0.999941 0.000000
vn 0.010893 0.999941 0.000000
vn 0.010893 0.999941 0.000000
vn 0.060646 0.955155 -0.289828
vn 0.060646 0.955155 -0.289828
vn 0.060646 0.955155 -0.289828
vn 0.060646 0.955155 -0.289828
vn 0.069498 0.974617 -0.212820
vn 0.069498 0.974617 -0.212820
vn 0.069498 0.974617 -0.212820
vn 0.072045 0.695589 -0.714819
vn 0.072045 0.695589 -0.714819
vn 0.072045 0.695589 -0.714819
vn 0.020973 0.774564 -0.632147
vn 0.020973 0.774564 -0.632147
vn 0.020973 0.774564 -0.632147
vn 0.004011 0.640218 -0.768183
vn 0.004011 0.640218 -0.768183
vn 0.004011 0.640218 -0.768183
vn 0.016598 0.626128 -0.779543
vn 0.016598 0.626128 -0.779544
vn 0.016598 0.626128 -0.779544
vn -0.046126 0.963329 -0.264329
vn -0.046126 0.963329 -0.264329
vn -0.046126 0.963329 -0.264329
vn -0.046126 0.963329 -0.264329
vn 0.000000 0.986117 -0.166054
vn 0.000000 0.986117 -0.166054
vn 0.000000 0.986117 -0.166054
vn -0.099232 0.938111 -0.331815
vn -0.099232 0.938111 -0.331815
vn -0.099232 0.938111 -0.331815
vn -0.016598 0.626129 -0.779543
vn -0.016598 0.626129 -0.779543
vn -0.016598 0.626129 -0.779543
vn -0.002171 0.642236 -0.766504
vn -0.002171 0.642236 -0.766504
vn -0.002171 0.642236 -0.766504
vn -0.020973 0.774563 -0.632149
vn -0.020973 0.774563 -0.632149
vn -0.020973 0.774563 -0.632149
vn -0.072045 0.695591 -0.714816
vn -0.072045 0.695591 -0.714816
vn -0.072045 0.695591 -0.714816
vn 0.102556 0.985538 -0.134893
vn 0.102556 0.985538 -0.134893
vn 0.102556 0.985538 -0.134893
vn 0.332365 0.938784 -0.090653
vn 0.332365 0.938784 -0.090653
vn 0.332365 0.938784 -0.090653
vn 0.338105 0.937044 0.087364
vn 0.338105 0.937044 0.087364
vn 0.338105 0.937044 0.087364
vn 0.779663 0.625977 -0.016680
vn 0.779663 0.625977 -0.016680
vn 0.779663 0.625977 -0.016680
vn 0.619187 0.772301 -0.141983
vn 0.619187 0.772301 -0.141983
vn 0.619187 0.772301 -0.141983
vn 0.630143 0.776227 -0.019784
vn 0.630143 0.776227 -0.019784
vn 0.630143 0.776227 -0.019784
vn 0.630143 0.776227 -0.019784
vn 0.641059 0.764872 -0.063349
vn 0.641059 0.764873 -0.063349
vn 0.641059 0.764873 -0.063349
vn 0.303291 0.952727 0.018073
vn 0.303290 0.952727 0.018073
vn 0.303290 0.952727 0.018073
vn 0.678891 0.733210 0.038861
vn 0.678891 0.733210 0.038861
vn 0.678891 0.733210 0.038861
vn 0.678891 0.733210 0.038861
vn 0.790203 0.612169 -0.028776
vn 0.790203 0.612169 -0.028776
vn 0.790203 0.612169 -0.028776
vn 0.778109 0.628103 0.005712
vn 0.778109 0.628103 0.005712
vn 0.778109 0.628103 0.005712
vn 0.778109 0.628103 0.005712
vn 0.384033 0.922231 -0.044811
vn 0.384033 0.922231 -0.044811
vn 0.384033 0.922231 -0.044811
vn 0.384033 0.922231 -0.044811
vn 0.350329 0.935862 0.037854
vn 0.350329 0.935862 0.037854
vn 0.350329 0.935862 0.037854
vn 0.350329 0.935862 0.037854
vn -0.187167 0.980800 0.054767
vn -0.187167 0.980800 0.054767
vn -0.187167 0.980800 0.054767
vn -0.269045 0.961164 0.061465
vn -0.269045 0.961164 0.061465
vn -0.269045 0.961164 0.061465
vn -0.239770 0.967647 0.078550
vn -0.239770 0.967647 0.078550
vn -0.239770 0.967647 0.078550
vn -0.675246 0.737374 0.017955
vn -0.675246 0.737374 0.017955
vn -0.675246 0.737374 0.017955
vn -0.699607 0.712154 0.058196
vn -0.699607 0.712154 0.058196
vn -0.699607 0.712154 0.058196
vn -0.632074 0.774626 0.020922
vn -0.632074 0.774626 0.020922
vn -0.632074 0.774626 0.020922
vn -0.659202 0.751052 0.037056
vn -0.659203 0.751052 0.037056
vn -0.659203 0.751052 0.037056
vn -0.185351 0.981654 -0.044721
vn -0.185351 0.981654 -0.044721
vn -0.185351 0.981654 -0.044721
vn -0.189435 0.980773 -0.046886
vn -0.189435 0.980773 -0.046886
vn -0.189435 0.980773 -0.046886
vn -0.619633 0.784772 -0.013702
vn -0.619633 0.784772 -0.013702
vn -0.619633 0.784772 -0.013702
vn -0.619633 0.784772 -0.013702
vn -0.588381 0.803340 -0.091939
vn -0.588381 0.803340 -0.091939
vn -0.588381 0.803340 -0.091939
vn -0.700684 0.713252 -0.017698
vn -0.700684 0.713252 -0.017698
vn -0.700684 0.713252 -0.017698
vn -0.268152 0.957980 -0.101825
vn -0.268152 0.957980 -0.101825
vn -0.268152 0.957980 -0.101825
vn -0.183166 0.980776 -0.067303
vn -0.183166 0.980776 -0.067303
vn -0.183166 0.980776 -0.067303
vn 0.006935 0.000000 0.999976
vn 0.006935 0.000000 0.999976
vn 0.006935 0.000000 0.999976
vn 0.006935 0.000000 0.999976
vn 0.026021 0.000000 0.999661
vn 0.026021 0.000000 0.999661
vn 0.026021 0.000000 0.999661
vn 0.026021 0.000000 0.999661
vn -0.006935 0.000000 0.999976
vn -0.006935 0.000000 0.999976
vn -0.006935 0.000000 0.999976
vn -0.006935 0.000000 0.999976
vn -0.026022 0.000000 0.999661
vn -0.026022 0.000000 0.999661
vn -0.026022 0.000000 0.999661
vn -0.026022 0.000000 0.999661
vn 0.006843 0.000000 -0.999977
vn 0.006843 0.000000 -0.999977
vn 0.006843 0.000000 -0.999977
vn 0.006843 0.000000 -0.999977
vn -0.006840 0.000000 -0.999977
vn -0.006840 0.000000 -0.999977
vn -0.006840 0.000000 -0.999977
vn -0.006840 0.000000 -0.999977
vn 0.999976 0.000000 -0.006943
vn 0.999976 0.000000 -0.006943
vn 0.999976 0.000000 -0.006943
vn 0.999976 0.000000 -0.006943
vn 0.999976 0.000000 0.006940
vn 0.999976 0.000000 0.006940
vn 0.999976 0.000000 0.006940
vn 0.999976 0.000000 0.006940
vn 0.999662 0.000000 0.026008
vn 0.999662 0.000000 0.026008
vn 0.999662 0.000000 0.026008
vn 0.999662 0.000000 0.026008
vn -0.999976 0.000000 0.006936
vn -0.999976 0.000000 0.006936
vn -0.999976 0.000000 0.006936
vn -0.999976 0.000000 0.006936
vn -0.999661 0.000000 0.026022
vn -0.999661 0.000000 0.026022
vn -0.999661 0.000000 0.026022
vn -0.999661 0.000000 0.026022
vn -0.999976 0.000000 -0.006936
vn -0.999976 0.000000 -0.006936
vn -0.999976 0.000000 -0.006936
vn -0.999976 0.000000 -0.006936
vn 0.026099 0.000000 -0.999659
vn 0.026099 0.000000 -0.999659
vn 0.026099 0.000000 -0.999659
vn 0.026099 0.000000 -0.999659
vn -0.026099 0.000000 -0.999659
vn -0.026099 0.000000 -0.999659
vn -0.026099 0.000000 -0.999659
vn -0.026099 0.000000 -0.999659
vn 0.999662 0.000000 -0.026004
vn 0.999662 0.000000 -0.026004
vn 0.999662 0.000000 -0.026004
vn 0.999662 0.000000 -0.026004
vn -0.999661 0.000000 -0.026022
vn -0.999661 0.000000 -0.026022
vn -0.999661 0.000000 -0.026022
vn -0.999661 0.000000 -0.026022
s off
g JumpPad group2 group group1
usemtl lambert2SG
f 34/1/1 10/60/2 37/2/3
f 37/2/4 56/3/5 34/1/6
f 36/4/7 10/60/8 34/1/9 35/5/10
f 5/59/11 10/60/12 36/4/13
f 10/60/14 4/55/15 37/2/16
f 58/6/17 38/7/18 39/8/19
f 38/7/20 11/9/21 39/8/22
f 38/7/23 3/53/24 29/58/25
f 29/58/26 11/9/27 38/7/28
f 5/59/29 36/4/30 11/9/31
f 29/58/32 5/59/33 11/9/34
f 11/9/35 36/4/36 35/5/37 39/8/38
f 34/1/39 56/3/40 12/10/41
f 24/11/42 28/12/43 40/13/44
f 12/10/45 56/3/46 24/11/47 40/13/48
f 40/13/49 42/14/50 41/15/51
f 30/16/52 12/10/53 40/13/54 41/15/55
f 35/5/56 34/1/57 12/10/58 30/16/59
f 22/17/60 2/18/61 13/19/62 53/20/63
f 13/19/64 43/21/65 53/20/66
f 43/21/67 18/22/68 53/20/69
f 28/12/70 25/23/71 43/21/72
f 25/23/73 18/22/74 43/21/75
f 43/21/76 13/19/77 42/14/78
f 42/14/79 40/13/80 28/12/81 43/21/82
f 14/24/83 51/25/84 1/26/85 44/27/86
f 44/27/87 23/28/88 48/29/89
f 48/29/90 45/30/91 44/27/92
f 45/30/93 14/24/94 44/27/95
f 42/14/96 13/19/97 14/24/98 45/30/99
f 13/19/100 2/18/101 51/25/102 14/24/103
f 58/6/104 39/8/105 15/31/106
f 39/8/107 35/5/108 30/16/109 46/32/110
f 15/31/111 39/8/112 46/32/113
f 41/15/114 42/14/115 45/30/116 47/33/117
f 47/33/118 15/31/119 46/32/120
f 46/32/121 30/16/122 41/15/123 47/33/124
f 23/28/125 58/6/126 15/31/127 48/29/128
f 15/31/129 47/33/130 48/29/131
f 47/33/132 45/30/133 48/29/134
f 31/34/135 16/35/136 50/36/137 22/17/138
f 50/36/139 2/18/140 22/17/141
f 49/50/142 16/35/143 31/34/144
f 31/34/145 27/48/146 49/50/147
f 6/57/148 50/36/149 16/35/150
f 49/50/151 6/57/152 16/35/153
f 51/25/154 17/37/155 32/38/156 1/26/157
f 51/25/158 2/18/159 50/36/160
f 50/36/161 17/37/162 51/25/163
f 6/57/164 52/49/165 17/37/166
f 17/37/167 50/36/168 6/57/169
f 26/46/170 32/38/171 52/49/172
f 32/38/173 17/37/174 52/49/175
f 53/20/176 31/34/177 22/17/178
f 25/23/179 28/12/180 54/39/181
f 18/22/182 25/23/183 54/39/184
f 7/56/185 55/47/186 54/39/187
f 55/47/188 18/22/189 54/39/190
f 27/48/191 31/34/192 53/20/193 55/47/194
f 53/20/195 18/22/196 55/47/197
f 56/3/198 37/2/199 19/40/200
f 37/2/201 4/55/202 9/54/203 19/40/204
f 7/56/205 54/39/206 57/41/207
f 19/40/208 9/54/209 7/56/210 57/41/211
f 54/39/212 28/12/213 24/11/214 57/41/215
f 24/11/216 56/3/217 19/40/218 57/41/219
f 20/42/220 38/7/221 58/6/222
f 23/28/223 60/43/224 20/42/225
f 20/42/226 58/6/227 23/28/228
f 8/51/229 33/52/230 20/42/231
f 20/42/232 60/43/233 8/51/234
f 33/52/235 3/53/236 38/7/237
f 38/7/238 20/42/239 33/52/240
f 44/27/241 1/26/242 21/44/243
f 1/26/244 32/38/245 21/44/246
f 21/44/247 32/38/248 26/46/249 59/45/250
f 60/43/251 21/44/252 59/45/253
f 59/45/254 8/51/255 60/43/256
f 60/43/257 23/28/258 44/27/259
f 44/27/260 21/44/261 60/43/262
f 10/81/263 5/82/264 61/83/265 62/84/266
f 4/87/267 10/81/268 62/84/269 63/88/270
f 5/82/271 29/85/272 64/86/273 61/83/274
f 29/85/275 3/89/276 65/90/277 64/86/278
f 6/91/279 49/92/280 67/93/281 66/94/282
f 52/97/283 6/91/284 66/94/285 68/98/286
f 55/61/287 7/62/288 69/63/289 70/64/290
f 7/62/291 9/65/292 71/66/293 69/63/294
f 9/65/295 4/69/296 63/70/297 71/66/298
f 33/71/299 8/72/300 72/73/301 73/74/302
f 3/77/303 33/71/304 73/74/305 65/78/306
f 8/72/307 59/75/308 74/76/309 72/73/310
f 49/92/311 27/95/312 75/96/313 67/93/314
f 26/99/315 52/97/316 68/98/317 76/100/318
f 27/67/319 55/61/320 70/64/321 75/68/322
f 59/75/323 26/79/324 76/80/325 74/76/326
